<svg xmlns="http://www.w3.org/2000/svg" viewBox="0 0 32 32">
  <rect width="32" height="32" rx="8" fill="#f59e0b" />
  <path d="M16 5C9.925 5 5 9.03 5 14c0 4.97 4.925 9 11 9 1.215 0 2.38-.164 3.469-.47L24 26v-4.25C26.27 19.95 27 17.09 27 14c0-4.97-4.925-9-11-9z" fill="white" />
  <path d="M21.731 2.269a2.625 2.625 0 00-3.712 0l-1.157 1.157 3.712 3.712 1.157-1.157a2.625 2.625 0 000-3.712zM19.513 8.199l-3.712-3.712-12.15 12.15a5.25 5.25 0 00-1.32 2.214l-.8 2.685a.75.75 0 00.933.933l2.685-.8a5.25 5.25 0 002.214-1.32L19.513 8.2z" fill="#f59e0b" transform="translate(5, 5) scale(0.65)" />
</svg>